<svg viewBox="0 0 121 100" fill="none" xmlns="http://www.w3.org/2000/svg"><path d="M24.677 13.128a3.123 3.123 0 0 1-2.64-2.694c-.17-1.35.88-3.526 3.426-3.082.858.148 1.586.808 2.102 1.527.517.717.714 1.759.287 2.666-.56 1.187-2.007 1.757-3.175 1.583Zm69.367 57.43c-.482-.509-1.207-1.098-1.907-1.25-6.822-1.474-13.74-2.278-20.644-2.325a95.702 95.702 0 0 0-2.31.016 441.501 441.501 0 0 0 7.779-39.362c.088-.583-.834-1.384-1.24-1.684-.463-.341-1.353-.98-1.95-.753l-33.67 12.768-7.29 2.765-5.326-16.914-1.804-5.729c-.218-.69-1.036-1.364-1.645-1.718a4.193 4.193 0 0 0-.855-.395c-.139-.043-.739-.168-.827.078A2161467.036 2161467.036 0 0 1 11.693 45.91c-.435 1.22 3.01 3.36 3.308 2.528l8.311-23.272.924-2.587 4.37 13.874c.6 1.91 1.202 3.82 1.803 5.729.2.636.893 1.203 1.417 1.562.41.28 1.205.792 1.722.596l33.67-12.768 5.693-2.16a442.176 442.176 0 0 1-7.817 38.07c-.125.497.735 1.257 1.028 1.506.454.385 1.249.99 1.879.956a98.309 98.309 0 0 1 21.457 1.218L74.743 85.27l-3.67 3.518c-5.034-6.312-10.554-12.28-16.512-17.762-7.037-6.474-14.736-12.324-23.197-16.796-4.342-2.295-8.922-4.186-13.643-5.412-.232-.06-.653-.15-.827.078-.17.222.015.619.142.819.49.77 1.439 1.553 2.339 1.787a53.038 53.038 0 0 1 5.122 1.607l.292.109.1.037.073.028a67.918 67.918 0 0 1 7.235 3.317l.126.067.289.156a81.227 81.227 0 0 1 3.553 2.053 92.181 92.181 0 0 1 3.503 2.25c.115.078.828.555.375.254.467.31.922.64 1.379.966a112.792 112.792 0 0 1 6.728 5.195l.59.493.288.243.137.118c.867.743 1.724 1.496 2.57 2.26a143.498 143.498 0 0 1 4.956 4.69 153.217 153.217 0 0 1 2.957 3.016c.078.08.155.162.232.243l.034.036.023.024c.4.427.8.853 1.197 1.283a160.442 160.442 0 0 1 9.286 11.025c.412.535 1.058.999 1.67 1.275.36.163.916.386 1.237.079l16.567-15.884 4.724-4.528c.35-.335-.386-1.158-.574-1.356Zm9.539-1.15c.427-.907.229-1.949-.287-2.666-.516-.718-1.245-1.379-2.103-1.527-2.546-.443-3.595 1.732-3.426 3.083a3.124 3.124 0 0 0 2.641 2.694c1.168.173 2.614-.397 3.175-1.584ZM80.421 24.866c1.455.283 3.206-.31 3.824-1.7.47-1.062.159-2.326-.526-3.221-.683-.896-1.626-1.736-2.696-1.97-3.177-.695-4.334 1.852-4.038 3.485.308 1.708 1.748 3.078 3.436 3.406Z" fill="#4E7AFF"/></svg>