<svg viewBox="0 0 203 29" fill="none" xmlns="http://www.w3.org/2000/svg"><path d="M14.291 28.76c7.893 0 14.292-6.384 14.292-14.26 0-7.875-6.398-14.26-14.291-14.26C6.398.24 0 6.626 0 14.5c0 7.876 6.399 14.26 14.291 14.26Z" fill="#FFD037"/><mask id="a" style="mask-type:luminance" maskUnits="userSpaceOnUse" x="6" y="3" width="16" height="21"><path d="M13.008 3.945c.42-1.258 2.204-1.258 2.624 0l6.015 18.005c.475 1.423-1.345 2.475-2.345 1.355l-3.95-4.424a1.385 1.385 0 0 0-2.065 0l-3.95 4.424c-1 1.12-2.82.068-2.345-1.355l6.016-18.005Z" fill="#fff"/></mask><g mask="url(#a)"><path d="m13.445 4.672 6.015 18.006 4.374-1.455-6.016-18.006-4.373 1.455ZM9.179 22.678l6.015-18.006-4.373-1.455-6.016 18.006 4.374 1.455Zm11.844-.903-3.95-4.424-3.442 3.06 3.95 4.424 3.442-3.06Zm-9.457-4.424-3.95 4.424 3.442 3.06 3.95-4.424-3.442-3.06Zm5.507 0a3.694 3.694 0 0 0-5.507 0l3.442 3.06a.923.923 0 0 1-1.377 0l3.442-3.06ZM4.805 21.223c-1.267 3.794 3.587 6.598 6.253 3.612l-3.442-3.06a.959.959 0 0 1 .589-.293.9.9 0 0 1 .561.108c.138.08.283.219.374.432a.953.953 0 0 1 .039.656l-4.374-1.455Zm14.655 1.455a.953.953 0 0 1 .04-.656.897.897 0 0 1 .373-.431.9.9 0 0 1 .561-.109.959.959 0 0 1 .59.293l-3.443 3.06c2.666 2.986 7.52.182 6.253-3.612l-4.374 1.455Zm-1.642-19.46c-1.12-3.356-5.877-3.356-6.997 0l4.373 1.454c-.28.839-1.47.839-1.75 0l4.374-1.455Z" fill="#151515"/></g><path d="M35.756 23.7a.567.567 0 0 1-.413-.176.564.564 0 0 1-.177-.413l.06-.323L42.541 3.74c.158-.431.473-.647.945-.647h1.888c.472 0 .787.216.944.647l7.317 19.048.06.323a.528.528 0 0 1-.207.413.567.567 0 0 1-.413.176h-1.387a.842.842 0 0 1-.502-.147.926.926 0 0 1-.235-.353l-1.653-4.24h-9.766L37.91 23.2c-.157.333-.403.5-.737.5h-1.417Zm4.633-7.183h8.084L44.431 5.948l-4.042 10.57ZM59.448 23.7a.639.639 0 0 1-.472-.176.742.742 0 0 1-.177-.5V3.798c0-.216.059-.382.177-.5a.591.591 0 0 1 .472-.206h7.465c2.222 0 3.963.54 5.222 1.619 1.279 1.06 1.918 2.61 1.918 4.651 0 2.042-.64 3.592-1.918 4.652-1.259 1.06-3 1.59-5.222 1.59h-5.311v7.418a.68.68 0 0 1-.207.5.638.638 0 0 1-.472.177h-1.475Zm7.317-10.48c2.97 0 4.456-1.286 4.456-3.857 0-1.256-.374-2.217-1.122-2.885-.728-.667-1.839-1-3.334-1h-5.163v7.742h5.163ZM80.267 23.7a.638.638 0 0 1-.471-.176.742.742 0 0 1-.178-.5V3.798c0-.216.06-.382.178-.5a.59.59 0 0 1 .471-.206h7.465c2.223 0 3.964.54 5.223 1.619 1.278 1.06 1.918 2.61 1.918 4.651 0 2.042-.64 3.592-1.918 4.652-1.26 1.06-3 1.59-5.223 1.59h-5.31v7.418a.68.68 0 0 1-.207.5.638.638 0 0 1-.472.177h-1.475Zm7.318-10.48c2.97 0 4.455-1.286 4.455-3.857 0-1.256-.374-2.217-1.121-2.885-.728-.667-1.84-1-3.334-1H82.42v7.742h5.164ZM105.63 23.7a.746.746 0 0 1-.502-.176.742.742 0 0 1-.177-.5v-17.4h-5.694a.745.745 0 0 1-.502-.176.741.741 0 0 1-.177-.5v-1.15c0-.216.06-.382.177-.5a.683.683 0 0 1 .502-.206h14.162c.216 0 .384.068.502.206.118.118.177.284.177.5v1.148a.68.68 0 0 1-.207.5.638.638 0 0 1-.472.178h-5.665v17.398a.679.679 0 0 1-.206.5.746.746 0 0 1-.502.177h-1.416Zm10.147 0a.567.567 0 0 1-.413-.176.564.564 0 0 1-.177-.413l.059-.323 7.318-19.048c.157-.431.472-.647.944-.647h1.888c.472 0 .787.216.945.647l7.317 19.048.058.323a.527.527 0 0 1-.206.413.567.567 0 0 1-.413.176h-1.387a.84.84 0 0 1-.501-.147.939.939 0 0 1-.237-.353l-1.651-4.24h-9.767l-1.623 4.24c-.157.333-.403.5-.737.5h-1.417Zm4.633-7.183h8.084l-4.042-10.569-4.042 10.57Zm24.702 7.478c-1.613 0-3.02-.256-4.219-.766-1.181-.51-2.086-1.177-2.715-2.002-.61-.844-.934-1.746-.974-2.708 0-.157.059-.294.177-.412a.602.602 0 0 1 .443-.177h1.446c.354 0 .6.196.737.589.177.824.679 1.54 1.505 2.149.846.589 2.046.883 3.6.883 1.671 0 2.921-.294 3.747-.883.826-.589 1.239-1.403 1.239-2.443 0-.668-.206-1.217-.619-1.649-.394-.432-.994-.805-1.8-1.119-.787-.333-1.977-.736-3.57-1.207-1.515-.431-2.725-.893-3.63-1.383-.885-.491-1.554-1.09-2.006-1.796-.453-.726-.678-1.639-.678-2.738 0-1.06.284-2.002.855-2.826.57-.844 1.397-1.502 2.479-1.973 1.081-.49 2.36-.736 3.835-.736 1.535 0 2.842.275 3.924.825 1.102.53 1.938 1.207 2.508 2.031.571.805.875 1.62.915 2.443a.602.602 0 0 1-.62.618h-1.475a.744.744 0 0 1-.442-.147.802.802 0 0 1-.295-.441c-.118-.844-.591-1.54-1.417-2.09-.826-.55-1.859-.825-3.098-.825-1.338 0-2.4.265-3.186.795-.787.51-1.18 1.276-1.18 2.297 0 .686.177 1.246.531 1.678.373.431.934.814 1.681 1.148.768.333 1.879.716 3.334 1.148 1.672.47 2.98.942 3.925 1.413.963.47 1.681 1.06 2.154 1.766.472.687.708 1.58.708 2.68 0 1.844-.708 3.287-2.125 4.327-1.397 1.02-3.295 1.53-5.694 1.53Zm18.597-.295a.746.746 0 0 1-.502-.176.742.742 0 0 1-.177-.5v-17.4h-5.694a.747.747 0 0 1-.502-.176.742.742 0 0 1-.177-.5v-1.15c0-.216.059-.382.177-.5a.685.685 0 0 1 .502-.206h14.162c.216 0 .384.068.502.206.118.118.177.284.177.5v1.148a.68.68 0 0 1-.207.5.638.638 0 0 1-.472.178h-5.665v17.398a.683.683 0 0 1-.206.5.746.746 0 0 1-.502.177h-1.416Zm14.402 0a.64.64 0 0 1-.472-.176.742.742 0 0 1-.177-.5V3.77c0-.196.059-.353.177-.471a.592.592 0 0 1 .472-.206h1.476c.216 0 .383.059.501.176.118.118.177.285.177.5v19.254a.679.679 0 0 1-.206.5.64.64 0 0 1-.472.177h-1.476Zm16.656.295c-2.616 0-4.613-.707-5.99-2.12-1.357-1.433-2.085-3.386-2.183-5.858-.02-.53-.03-1.394-.03-2.591 0-1.217.01-2.1.03-2.65.098-2.472.826-4.415 2.183-5.829 1.377-1.432 3.374-2.149 5.99-2.149 1.75 0 3.235.314 4.455.942 1.22.609 2.134 1.414 2.744 2.414a6.58 6.58 0 0 1 1.033 3.21.557.557 0 0 1-.207.44.667.667 0 0 1-.442.148h-1.476c-.196 0-.354-.049-.472-.147-.118-.098-.207-.265-.265-.5-.335-1.512-.944-2.572-1.829-3.18-.866-.608-2.046-.913-3.541-.913-3.423 0-5.203 1.904-5.341 5.712a74.94 74.94 0 0 0-.029 2.443c0 1.1.01 1.933.029 2.502.138 3.788 1.918 5.682 5.341 5.682 1.475 0 2.655-.304 3.541-.912.885-.609 1.494-1.659 1.829-3.15.058-.236.147-.403.265-.5a.716.716 0 0 1 .472-.148h1.476a.6.6 0 0 1 .442.176.477.477 0 0 1 .207.413 6.578 6.578 0 0 1-1.033 3.209c-.61 1-1.524 1.815-2.744 2.443-1.22.608-2.705.913-4.455.913Z" fill="#fff"/></svg>