<svg viewBox="0 0 65 65" fill="none" xmlns="http://www.w3.org/2000/svg"><rect x=".15" y=".15" width="64.7" height="64.7" rx="32.35" fill="#FFD037"/><rect x=".15" y=".15" width="64.7" height="64.7" rx="32.35" stroke="#fff" stroke-width=".3"/><mask id="a" style="mask-type:luminance" maskUnits="userSpaceOnUse" x="16" y="7" width="33" height="46"><path d="M29.576 9.067c.937-2.756 4.911-2.756 5.848 0l13.403 39.442c1.059 3.117-2.997 5.42-5.225 2.967l-8.801-9.69a3.122 3.122 0 0 0-4.602 0l-8.801 9.69c-2.228 2.453-6.284.15-5.225-2.967L29.577 9.067Z" fill="#fff"/></mask><g mask="url(#a)"><path d="m30.55 10.66 13.404 39.442 9.745-3.186L40.296 7.473l-9.745 3.187Zm-9.504 39.442L34.449 10.66l-9.745-3.187L11.3 46.916l9.746 3.186Zm26.391-1.978-8.801-9.69-7.67 6.703 8.801 9.69 7.67-6.703Zm-21.073-9.69-8.802 9.69 7.67 6.703 8.802-9.69-7.67-6.703Zm12.272 0c-3.268-3.598-9.004-3.598-12.272 0l7.67 6.703c-.817.9-2.251.9-3.068 0l7.67-6.703ZM11.3 46.916c-2.824 8.311 7.991 14.452 13.933 7.911l-7.67-6.703c.268-.295.738-.572 1.312-.64a2.03 2.03 0 0 1 1.25.237c.309.175.631.478.833.945.226.523.215 1.06.088 1.436L11.3 46.916Zm32.654 3.186c-.127-.375-.138-.913.087-1.436.203-.467.525-.77.833-.945a2.034 2.034 0 0 1 1.25-.237c.575.068 1.045.345 1.313.64l-7.67 6.703c5.941 6.541 16.757.4 13.932-7.911l-9.745 3.186ZM40.296 7.473c-2.497-7.349-13.095-7.349-15.592 0l9.745 3.187c-.624 1.837-3.274 1.837-3.898 0l9.745-3.187Z" fill="#151515"/></g></svg>